<svg width="408" height="408" viewBox="0 0 408 408" fill="none" xmlns="http://www.w3.org/2000/svg">
<g clip-path="url(#clip0_1399_100)">
<mask id="mask0_1399_100" style="mask-type:luminance" maskUnits="userSpaceOnUse" x="8" y="9" width="408" height="408">
<path d="M416 9H8V417H416V9Z" fill="white"/>
</mask>
<g mask="url(#mask0_1399_100)">
<path d="M333.481 236.829V106.639H300.931V74.0892H268.381V41.5391H235.831V74.0892H170.731V41.5391H138.181V74.0892H105.631V106.639H73.0813V236.829H40.5312V269.379H73.0813V301.929H105.631V334.479H170.731V301.929H235.831V334.479H300.931V301.929H333.481V269.379H366.031V236.829H333.481ZM235.831 236.829V171.729H268.381V236.829H235.831ZM138.191 204.289V171.739H170.741V236.839H138.191V204.289Z" fill="white"/>
<path d="M105.652 301.93H73.1016V334.48H105.652V301.93Z" fill="#CBDBFC"/>
<path d="M203.288 301.93H170.738V334.48H203.288H235.828V301.93H203.288Z" fill="#CBDBFC"/>
<path d="M333.48 301.93H300.93V334.48H333.48V301.93Z" fill="#CBDBFC"/>
<path d="M105.641 334.48V367.02H138.191H170.741V334.48H138.191H105.641Z" fill="#CBDBFC"/>
<path d="M235.828 334.48V367.02H268.378H300.928V334.48H268.378H235.828Z" fill="#CBDBFC"/>
<path d="M138.191 41.55H170.741V9H138.191H105.641V41.55V74.1002H138.191V41.55Z" fill="black"/>
<path d="M203.288 74.1012H235.828V41.5508H203.288H170.738V74.1012H203.288Z" fill="black"/>
<path d="M268.378 74.1002H300.928V41.55V9H268.378H235.828V41.55H268.378V74.1002Z" fill="black"/>
<path d="M105.652 74.1016H73.1016V106.652H105.652V74.1016Z" fill="black"/>
<path d="M333.48 74.1016H300.93V106.652H333.48V74.1016Z" fill="black"/>
<path d="M333.48 171.741V204.291V236.831H366.02V204.291V171.741V139.191V106.641H333.48V139.191V171.741Z" fill="black"/>
<path d="M138.191 204.288V236.828H170.741V204.288V171.738H138.191V204.288Z" fill="black"/>
<path d="M235.828 204.288V236.828H268.378V204.288V171.738H235.828V204.288Z" fill="black"/>
<path d="M73.1008 204.291V171.741V139.191V106.641H40.5508V139.191V171.741V204.291V236.831H73.1008V204.291Z" fill="black"/>
<path d="M40.55 236.832H8V269.382H40.55V236.832Z" fill="black"/>
<path d="M398.57 236.832H366.02V269.382H398.57V236.832Z" fill="black"/>
<path d="M73.1008 269.379H40.5508V301.929V334.479H73.1008V301.929V269.379Z" fill="black"/>
<path d="M333.48 301.929V334.479H366.02V301.929V269.379H333.48V301.929Z" fill="black"/>
<path d="M105.652 334.48H73.1016V367.03H105.652V334.48Z" fill="black"/>
<path d="M203.288 334.48H170.738V367.02H203.288H235.828V334.48H203.288Z" fill="black"/>
<path d="M333.48 334.48H300.93V367.03H333.48V334.48Z" fill="black"/>
<path d="M105.641 367.02V399.57H138.191H170.741V367.02H138.191H105.641Z" fill="black"/>
<path d="M235.828 367.02V399.57H268.378H300.928V367.02H268.378H235.828Z" fill="black"/>
</g>
</g>
<defs>
<clipPath id="clip0_1399_100">
<rect width="408" height="408" fill="white"/>
</clipPath>
</defs>
</svg>
